<?xml version="1.0" encoding="utf-8"?>
<!-- Generator: Adobe Illustrator 24.2.1, SVG Export Plug-In . SVG Version: 6.00 Build 0)  -->
<svg version="1.1" id="Layer_1" xmlns="http://www.w3.org/2000/svg" xmlns:xlink="http://www.w3.org/1999/xlink" x="0px" y="0px"
	 viewBox="0 0 700 700" style="enable-background:new 0 0 700 700;" xml:space="preserve">
<g>
	<path d="M349.9,84c0,29.9,24.3,54.2,54.2,54.2c29.9,0,54.2-24.3,54.2-54.2c0-14.4-5.6-27.5-14.8-37.2c2.6,0.3,5.5,0.8,8.7,1.9
		c3.5,1.1,7.4,2.8,11.6,5.2c0.4,0.2,0.8,0.3,1.2,0.3c0.8,0,1.6-0.4,2.1-1.2c0.7-1.2,0.3-2.6-0.9-3.3c-7.4-4.3-13.9-6.4-19.4-7.3
		c-3.3-0.6-6.2-0.7-8.8-0.5c-2.7-2.1-5.5-4.1-8.6-5.7c1.9-0.9,4-1.9,6.5-2.6c4.3-1.3,9.5-2.1,15.6-1.6c1.4,0.1,2.5-0.9,2.6-2.2
		c0.1-1.3-0.9-2.5-2.2-2.6c-8.8-0.6-16,1.1-21.5,3.3c-2.4,1-4.5,2.1-6.3,3.2c-4.9-2-10.2-3.2-15.7-3.7c0.5-1.6,1.3-3.4,2.3-5.3
		c3.1-6.1,8.8-13.4,19.2-20.2c1.1-0.7,1.4-2.2,0.7-3.3c-0.7-1.1-2.2-1.4-3.3-0.7c-12.2,8.1-18.5,16.8-21.8,23.9
		c-0.9,2-1.6,3.9-2.1,5.5c-3.5,0-7,0.4-10.3,1.1c-0.1-2-0.2-3.8-0.4-5.5c-1.6-11.7-6.7-16.9-7-17.1c-1-0.9-2.5-0.9-3.4,0.1
		c-0.9,0.9-0.9,2.5,0,3.4c0.1,0.1,4.3,4.5,5.6,14.8c0.2,1.7,0.3,3.6,0.4,5.6c-2.3,0.7-4.5,1.5-6.6,2.5c-0.8-1.5-1.7-3.1-2.8-4.8
		c-2.8-4.3-6.9-9.1-12.9-14c-1-0.9-2.5-0.7-3.4,0.3c-0.8,1-0.7,2.5,0.3,3.4c5.4,4.4,9.1,8.7,11.6,12.5c1.1,1.7,2,3.3,2.8,4.8
		c-4.3,2.4-8.2,5.4-11.6,8.8c-1.6-0.7-3.5-1.5-5.7-2c-4.9-1.3-11.1-1.7-18,0.4c-1.3,0.4-2,1.7-1.6,3c0.4,1.3,1.7,2,3,1.6
		c4.9-1.5,9.4-1.5,13.1-0.8c2.2,0.4,4.1,1,5.8,1.6C354.6,58.8,349.9,70.8,349.9,84L349.9,84z"/>
	<path d="M227.9,207.9c0.1-0.1,4.5-3.7,11.5-5.1c-0.1,0.1-0.2,0.3-0.2,0.4c-4.3,7.9-2.5,17.4,3.7,23.3c-10.5,6.3-17,13.5-17.5,14.1
		c-0.9,1-0.8,2.5,0.2,3.4c0.5,0.4,1,0.6,1.6,0.6c0.7,0,1.3-0.3,1.8-0.8c0.1-0.1,7.1-7.8,18.3-14.1c6.7,3.7,15.4,8,24.8,11.5
		c-0.1,3.2-0.2,6.6-0.6,10.3c-0.1,1.3,0.9,2.5,2.2,2.6c0.1,0,0.2,0,0.2,0c1.2,0,2.3-0.9,2.4-2.2c0.3-3.1,0.5-6.1,0.6-9
		c8.9,3,18.2,5.1,26.7,5.1c6.2,0,11.9-1.1,16.9-3.7c8.7-4.5,14.2-12.9,15.3-23.1c3.1-27.7,9.4-46,14.2-57.8v361.1
		c0,16.4,13.7,29.8,30.1,29.8c16.4,0,30.1-13.3,30.1-29.8V307.1h9.6v217.4c0,16.4,13.7,29.8,30.1,29.8c16.4,0,30.1-13.3,30.1-29.8
		V243l0-79.7c12,22.4,20.5,67.5,15.6,152.1c-0.6,10.6,7.6,19.7,18.2,20.4c0.4,0,0.8,0,1.2,0c10.1,0,18.6-7.9,19.2-18.1
		c5.9-101.7-6.8-168.1-37.8-197.2c-13.6-12.7-26.8-15.1-33.6-15.3c-0.4,0-0.7-0.3-1.1-0.3h-2c-8.6,21.7-30.3,38.6-55.7,38.6
		c-23.8,0-44.3-13.9-53.9-34c-3.8,1.7-7.8,4.1-11.9,7.3c-20.4,16.1-33.7,47.1-39.7,92.1c-7.6-1.6-19.9-6.3-30.5-11.8
		c-5.5-10.4-11.6-14.5-12.1-14.9c-1.1-0.7-2.6-0.4-3.3,0.7c-0.7,1.1-0.4,2.6,0.7,3.3c0.1,0.1,3.3,2.2,7,7.5
		c-5.8-1.3-11.8,0.1-16.4,3.8c-11.3,0.3-18.8,6.4-19.1,6.7c-1,0.9-1.2,2.4-0.3,3.4S226.9,208.7,227.9,207.9L227.9,207.9z"/>
	<path d="M250.8,338.3c0.3,0.1,0.6,0.2,0.9,0.2c1,0,1.9-0.6,2.3-1.6c7.9-21,10-43.3,5.2-54.4c-0.5-1.2-2-1.8-3.2-1.2
		c-1.2,0.5-1.8,2-1.2,3.2c3.7,8.4,3.1,28.6-5.3,50.7C248.9,336.4,249.5,337.8,250.8,338.3L250.8,338.3z"/>
	<path d="M234.7,376.6c4.6,2.8,7.2,6.2,7.7,10.1c1,8.5-8,17.3-8.1,17.4c-1,0.9-1,2.4-0.1,3.4c0.5,0.5,1.1,0.7,1.7,0.7
		c0.6,0,1.2-0.2,1.7-0.7c0.4-0.4,10.8-10.5,9.6-21.4c-0.6-5.5-4-10.1-10-13.7c-17.9-10.7-3.3-39.1-3.1-39.3c0.6-1.2,0.2-2.6-1-3.3
		c-1.2-0.6-2.6-0.2-3.3,1C223.9,342.1,217.3,366.2,234.7,376.6L234.7,376.6z"/>
	<path d="M200,520.4c0.3-0.1,20.5-9.2,44.4-4.5c-7.3,1.8-11.9,3.7-12.5,3.9c-1.2,0.5-1.8,1.9-1.3,3.1c0.5,1.2,1.9,1.8,3.2,1.3
		c0.2-0.1,8.7-3.6,21.1-5.4c4.5,1.7,9,3.9,13.5,6.8c0.4,0.3,0.9,0.4,1.3,0.4c0.8,0,1.6-0.4,2-1.1c0.7-1.1,0.4-2.6-0.7-3.3
		c-2.1-1.4-4.2-2.6-6.4-3.7c12.3-0.6,26.8,1.1,40.3,8.5c0.4,0.2,0.8,0.3,1.2,0.3c0.9,0,1.7-0.5,2.1-1.3c0.6-1.2,0.2-2.6-1-3.3
		c-18.1-9.9-37.4-10.3-52-8.3c-29.3-10.3-56,1.6-57.3,2.2c-1.2,0.6-1.7,2-1.2,3.2C197.3,520.4,198.8,520.9,200,520.4L200,520.4z"/>
	<path d="M252.1,534.5c-1.3,0.4-2,1.7-1.6,3c0.4,1.3,1.7,2,3,1.6c0.3-0.1,34.1-10.1,52.2,13c0.5,0.6,1.2,0.9,1.9,0.9
		c0.5,0,1-0.2,1.5-0.5c1.1-0.8,1.2-2.3,0.4-3.4C289.4,523.5,253.6,534.1,252.1,534.5L252.1,534.5z"/>
	<path d="M168.2,547.5c1.3-0.9,29-21,49.9-1.8c-14.6,2.2-24.9,9.8-25.1,10c-1.1,0.8-1.3,2.3-0.5,3.4c0.5,0.6,1.2,1,1.9,1
		c0.5,0,1-0.2,1.4-0.5c0.7-0.5,11.4-8.4,26.2-9.6c0.2,0.2,0.4,0.4,0.6,0.7c0.5,0.6,1.2,0.9,1.9,0.9c0.5,0,1-0.2,1.5-0.5
		c0.4-0.3,0.6-0.8,0.8-1.2c8.1,0.2,17,2.7,26.1,9.4c1.1,0.8,2.6,0.6,3.4-0.5c0.8-1.1,0.6-2.6-0.5-3.4c-10.9-8.1-21.8-10.5-31.4-10.2
		c-24-26.9-58.6-1.8-59-1.5c-1.1,0.8-1.3,2.3-0.5,3.4C165.6,548.1,167.1,548.3,168.2,547.5L168.2,547.5z"/>
</g>
</svg>
